<?xml version="1.0" encoding="UTF-8"?>
<svg id="Layer_1" data-name="Layer 1" xmlns="http://www.w3.org/2000/svg" xmlns:xlink="http://www.w3.org/1999/xlink" viewBox="0 0 458 458">
  <defs>
    <style>
      .cls-1 {
        fill: #00ffab;
        stroke: #006837;
        stroke-width: 4px;
      }

      .cls-1, .cls-2, .cls-3 {
        stroke-miterlimit: 10;
      }

      .cls-2 {
        fill: none;
        stroke: #000;
      }

      .cls-3 {
        fill: #007758;
        stroke: url(#linear-gradient);
      }
    </style>
    <linearGradient id="linear-gradient" x1="0" y1="231" x2="458" y2="231" gradientTransform="translate(0 460) scale(1 -1)" gradientUnits="userSpaceOnUse">
      <stop offset="0" stop-color="#fff"/>
      <stop offset="1" stop-color="#000"/>
    </linearGradient>
  </defs>
  <path class="cls-1" d="m277.01,34.29c-10-2.38-20.29-4.01-30.82-4.82-5.16-.4-10.38-.6-15.65-.6s-10.15.19-15.15.56c-10.52.79-20.81,2.39-30.82,4.74-10.62,2.48-20.92,5.82-30.82,9.94v368.81c9.89,4.11,20.19,7.46,30.82,9.94v-209.76h92.44v209.64c10.63-2.51,20.92-5.88,30.82-10.03V44.31c-9.89-4.14-20.18-7.52-30.82-10.03h0Zm0,147.99h-92.44v-117.08c9.93-2.78,20.23-4.67,30.82-5.61v-.62h11.64c1.17-.03,2.34-.04,3.51-.04s2.34,0,3.51.04h12.14v.67c10.58.96,20.88,2.89,30.82,5.7v116.94Z"/>
  <path class="cls-1" d="m368.45,244.26v-30.82h60.55c-.81-10.53-2.44-20.82-4.82-30.83-2.52-10.63-5.9-20.93-10.06-30.83-4.18-9.98-9.16-19.55-14.85-28.63-.46-.74-.92-1.47-1.4-2.2-7.14-11.08-15.34-21.4-24.48-30.82-1.61-1.67-3.25-3.31-4.93-4.91-9.42-9.09-19.74-17.26-30.81-24.37-.82-.52-1.64-1.04-2.47-1.55-8.99-5.6-18.46-10.5-28.35-14.63v368.39c9.89-4.13,19.38-9.05,28.39-14.64.81-.51,1.62-1.02,2.43-1.54v-121.78h30.81v51.62c-2.45,3.45-5.02,6.8-7.71,10.05h7.71v35.76c1.68-1.61,3.34-3.26,4.95-4.93,9.13-9.43,17.34-19.74,24.47-30.82.47-.72.94-1.45,1.39-2.18,5.7-9.09,10.68-18.66,14.86-28.65,4.16-9.9,7.54-20.2,10.06-30.83,2.38-10.01,4-20.3,4.81-30.83h-60.55v-.03Zm-30.81-61.65v-30.83h43.4c5,9.77,9.09,20.08,12.13,30.83h-55.53Z"/>
  <path class="cls-1" d="m121.94,182.61v-30.83h-43.9c-5,9.77-9.09,20.08-12.13,30.83-2.71,9.56-4.6,19.45-5.59,29.62-.04.4-.08.8-.12,1.21h92.56v199.82c-10.07-4.17-19.72-9.16-28.89-14.85-.65-.41-1.29-.81-1.93-1.22-11.06-7.06-21.37-15.16-30.81-24.2v-5.41h-5.45c-9.13-9.43-17.34-19.74-24.47-30.82-.3-.46-.6-.92-.89-1.39-5.91-9.32-11.06-19.16-15.36-29.44h76.99v-61.66H30.08c-.38-5.08-.58-10.22-.58-15.4s.2-10.33.58-15.42c.81-10.53,2.44-20.82,4.82-30.83,2.52-10.63,5.9-20.93,10.06-30.83,4.3-10.27,9.45-20.1,15.35-29.42.29-.47.59-.94.9-1.41,7.14-11.08,15.34-21.4,24.48-30.82,1.77-1.84,3.58-3.64,5.43-5.39,9.43-9.04,19.74-17.15,30.81-24.21.65-.41,1.31-.83,1.97-1.23,9.14-5.69,18.78-10.67,28.85-14.84v138.16h-30.82v-.02Z"/>
  <ellipse class="cls-2" cx="229.6" cy="228.8" rx="199.04" ry="199.14"/>
  <path class="cls-3" d="m229,.5C102.8.5.5,102.8.5,229s102.3,228.5,228.5,228.5,228.5-102.3,228.5-228.5S355.2.5,229,.5Zm.6,427.44c-109.92,0-199.04-89.15-199.04-199.14S119.68,29.66,229.6,29.66s199.04,89.16,199.04,199.14-89.11,199.14-199.04,199.14h0Z"/>
  <ellipse class="cls-2" cx="229.6" cy="228.8" rx="199.04" ry="199.14"/>
</svg>